<?xml version="1.0" encoding="UTF-8" standalone="no"?>
<!DOCTYPE svg PUBLIC "-//W3C//DTD SVG 1.1//EN"
 "http://www.w3.org/Graphics/SVG/1.1/DTD/svg11.dtd">
<!-- Generated by graphviz version 14.1.1 (20251213.1925)
 -->
<!-- Title: G Pages: 1 -->
<svg width="422pt" height="132pt"
 viewBox="0.00 0.00 422.00 132.00" xmlns="http://www.w3.org/2000/svg" xmlns:xlink="http://www.w3.org/1999/xlink">
<g id="graph0" class="graph" transform="scale(1 1) rotate(0) translate(4 127.5)">
<title>G</title>
<polygon fill="white" stroke="none" points="-4,4 -4,-127.5 417.95,-127.5 417.95,4 -4,4"/>
<!-- SCR -->
<g id="node1" class="node">
<title>SCR</title>
<ellipse fill="none" stroke="black" cx="28.32" cy="-61.75" rx="28.32" ry="18"/>
<text xml:space="preserve" text-anchor="middle" x="28.32" y="-56.7" font-family="Times New Roman,serif" font-size="14.00">SCR</text>
</g>
<!-- &#45;08 -->
<g id="node2" class="node">
<title>&#45;08</title>
<path fill="none" stroke="black" d="M86.7,-0.5C86.7,-0.5 401.95,-0.5 401.95,-0.5 407.95,-0.5 413.95,-6.5 413.95,-12.5 413.95,-12.5 413.95,-111 413.95,-111 413.95,-117 407.95,-123 401.95,-123 401.95,-123 86.7,-123 86.7,-123 80.7,-123 74.7,-117 74.7,-111 74.7,-111 74.7,-12.5 74.7,-12.5 74.7,-6.5 80.7,-0.5 86.7,-0.5"/>
<text xml:space="preserve" text-anchor="middle" x="244.32" y="-105.7" font-family="Times New Roman,serif" font-size="14.00">P06 Notes</text>
<polyline fill="none" stroke="black" points="74.7,-98.5 413.95,-98.5"/>
<text xml:space="preserve" text-anchor="middle" x="244.32" y="-81.2" font-family="Times New Roman,serif" font-size="14.00">Verse notes / Journal / Tags / Highlights / Prayer / Memory</text>
<polyline fill="none" stroke="black" points="74.7,-74 413.95,-74"/>
<text xml:space="preserve" text-anchor="middle" x="244.32" y="-56.7" font-family="Times New Roman,serif" font-size="14.00">notes on this chapter, edit in place, spell check</text>
<polyline fill="none" stroke="black" points="74.7,-49.5 413.95,-49.5"/>
<text xml:space="preserve" text-anchor="middle" x="244.32" y="-32.2" font-family="Times New Roman,serif" font-size="14.00">Highlights legend with live swatches</text>
<polyline fill="none" stroke="black" points="74.7,-25 413.95,-25"/>
<text xml:space="preserve" text-anchor="middle" x="244.32" y="-7.7" font-family="Times New Roman,serif" font-size="14.00">No notes on this chapter yet. New note (Ctrl+N)</text>
</g>
</g>
</svg>
