<?xml version="1.0" encoding="UTF-8" standalone="no"?>
<!DOCTYPE svg PUBLIC "-//W3C//DTD SVG 1.1//EN"
 "http://www.w3.org/Graphics/SVG/1.1/DTD/svg11.dtd">
<!-- Generated by graphviz version 14.1.1 (20251213.1925)
 -->
<!-- Title: G Pages: 1 -->
<svg width="578pt" height="156pt"
 viewBox="0.00 0.00 578.00 156.00" xmlns="http://www.w3.org/2000/svg" xmlns:xlink="http://www.w3.org/1999/xlink">
<g id="graph0" class="graph" transform="scale(1 1) rotate(0) translate(4 152)">
<title>G</title>
<polygon fill="white" stroke="none" points="-4,4 -4,-152 574.32,-152 574.32,4 -4,4"/>
<!-- SCR -->
<g id="node1" class="node">
<title>SCR</title>
<ellipse fill="none" stroke="black" cx="28.32" cy="-74" rx="28.32" ry="18"/>
<text xml:space="preserve" text-anchor="middle" x="28.32" y="-68.95" font-family="Times New Roman,serif" font-size="14.00">SCR</text>
</g>
<!-- &#45;10 -->
<g id="node2" class="node">
<title>&#45;10</title>
<path fill="none" stroke="black" d="M86.32,-0.5C86.32,-0.5 558.32,-0.5 558.32,-0.5 564.32,-0.5 570.32,-6.5 570.32,-12.5 570.32,-12.5 570.32,-135.5 570.32,-135.5 570.32,-141.5 564.32,-147.5 558.32,-147.5 558.32,-147.5 86.32,-147.5 86.32,-147.5 80.32,-147.5 74.32,-141.5 74.32,-135.5 74.32,-135.5 74.32,-12.5 74.32,-12.5 74.32,-6.5 80.32,-0.5 86.32,-0.5"/>
<text xml:space="preserve" text-anchor="middle" x="322.32" y="-130.2" font-family="Times New Roman,serif" font-size="14.00">P08 Guides</text>
<polyline fill="none" stroke="black" points="74.32,-123 570.32,-123"/>
<text xml:space="preserve" text-anchor="middle" x="322.32" y="-105.7" font-family="Times New Roman,serif" font-size="14.00">Passage Guide / Word Study / They Chose / Word&#39;s Journey Heb 8:8&#45;12</text>
<polyline fill="none" stroke="black" points="74.32,-98.5 570.32,-98.5"/>
<text xml:space="preserve" text-anchor="middle" x="322.32" y="-81.2" font-family="Times New Roman,serif" font-size="14.00">Cross&#45;references / Commentary snippets / Related (AI&#45;made) / Quotations / Rare words</text>
<polyline fill="none" stroke="black" points="74.32,-74 570.32,-74"/>
<text xml:space="preserve" text-anchor="middle" x="322.32" y="-56.7" font-family="Times New Roman,serif" font-size="14.00">They Chose: NT / LXX (Swete) / MT (WLC), marked by agreement</text>
<polyline fill="none" stroke="black" points="74.32,-49.5 570.32,-49.5"/>
<text xml:space="preserve" text-anchor="middle" x="322.32" y="-32.2" font-family="Times New Roman,serif" font-size="14.00">Verdict: agrees with the Septuagint against the Hebrew</text>
<polyline fill="none" stroke="black" points="74.32,-25 570.32,-25"/>
<text xml:space="preserve" text-anchor="middle" x="322.32" y="-7.7" font-family="Times New Roman,serif" font-size="14.00">Journey: Witness / Date / Rendering / Count / Method</text>
</g>
</g>
</svg>
