<?xml version="1.0" encoding="UTF-8" standalone="no"?>
<!DOCTYPE svg PUBLIC "-//W3C//DTD SVG 1.1//EN"
 "http://www.w3.org/Graphics/SVG/1.1/DTD/svg11.dtd">
<!-- Generated by graphviz version 14.1.1 (20251213.1925)
 -->
<!-- Title: G Pages: 1 -->
<svg width="472pt" height="181pt"
 viewBox="0.00 0.00 472.00 181.00" xmlns="http://www.w3.org/2000/svg" xmlns:xlink="http://www.w3.org/1999/xlink">
<g id="graph0" class="graph" transform="scale(1 1) rotate(0) translate(4 176.5)">
<title>G</title>
<polygon fill="white" stroke="none" points="-4,4 -4,-176.5 467.7,-176.5 467.7,4 -4,4"/>
<!-- SCR -->
<g id="node1" class="node">
<title>SCR</title>
<ellipse fill="none" stroke="black" cx="28.32" cy="-86.25" rx="28.32" ry="18"/>
<text xml:space="preserve" text-anchor="middle" x="28.32" y="-81.2" font-family="Times New Roman,serif" font-size="14.00">SCR</text>
</g>
<!-- &#45;17 -->
<g id="node2" class="node">
<title>&#45;17</title>
<path fill="none" stroke="black" d="M86.95,-0.5C86.95,-0.5 451.7,-0.5 451.7,-0.5 457.7,-0.5 463.7,-6.5 463.7,-12.5 463.7,-12.5 463.7,-160 463.7,-160 463.7,-166 457.7,-172 451.7,-172 451.7,-172 86.95,-172 86.95,-172 80.95,-172 74.95,-166 74.95,-160 74.95,-160 74.95,-12.5 74.95,-12.5 74.95,-6.5 80.95,-0.5 86.95,-0.5"/>
<text xml:space="preserve" text-anchor="middle" x="269.32" y="-154.7" font-family="Times New Roman,serif" font-size="14.00">D02 Search Builder</text>
<polyline fill="none" stroke="black" points="74.95,-147.5 463.7,-147.5"/>
<text xml:space="preserve" text-anchor="middle" x="269.32" y="-130.2" font-family="Times New Roman,serif" font-size="14.00">Basic / Boolean / Lemma / Morphology / Shape</text>
<polyline fill="none" stroke="black" points="74.95,-123 463.7,-123"/>
<text xml:space="preserve" text-anchor="middle" x="269.32" y="-105.7" font-family="Times New Roman,serif" font-size="14.00">field / operator / value rows, groups, NOT, within n words (GW&#45;12)</text>
<polyline fill="none" stroke="black" points="74.95,-98.5 463.7,-98.5"/>
<text xml:space="preserve" text-anchor="middle" x="269.32" y="-81.2" font-family="Times New Roman,serif" font-size="14.00">Scope: All Bibles Ignore vowel points and accents</text>
<polyline fill="none" stroke="black" points="74.95,-74 463.7,-74"/>
<text xml:space="preserve" text-anchor="middle" x="269.32" y="-56.7" font-family="Times New Roman,serif" font-size="14.00">Write the question first (v1.5): claim, holds if, fails if</text>
<polyline fill="none" stroke="black" points="74.95,-49.5 463.7,-49.5"/>
<text xml:space="preserve" text-anchor="middle" x="269.32" y="-32.2" font-family="Times New Roman,serif" font-size="14.00">about 1,240 verses</text>
<polyline fill="none" stroke="black" points="74.95,-25 463.7,-25"/>
<text xml:space="preserve" text-anchor="middle" x="269.32" y="-7.7" font-family="Times New Roman,serif" font-size="14.00">Run</text>
</g>
</g>
</svg>
