<?xml version="1.0" encoding="UTF-8" standalone="no"?>
<!DOCTYPE svg PUBLIC "-//W3C//DTD SVG 1.1//EN"
 "http://www.w3.org/Graphics/SVG/1.1/DTD/svg11.dtd">
<!-- Generated by graphviz version 14.1.1 (20251213.1925)
 -->
<!-- Title: G Pages: 1 -->
<svg width="438pt" height="181pt"
 viewBox="0.00 0.00 438.00 181.00" xmlns="http://www.w3.org/2000/svg" xmlns:xlink="http://www.w3.org/1999/xlink">
<g id="graph0" class="graph" transform="scale(1 1) rotate(0) translate(4 176.5)">
<title>G</title>
<polygon fill="white" stroke="none" points="-4,4 -4,-176.5 433.82,-176.5 433.82,4 -4,4"/>
<!-- SCR -->
<g id="node1" class="node">
<title>SCR</title>
<ellipse fill="none" stroke="black" cx="28.32" cy="-86.25" rx="28.32" ry="18"/>
<text xml:space="preserve" text-anchor="middle" x="28.32" y="-81.2" font-family="Times New Roman,serif" font-size="14.00">SCR</text>
</g>
<!-- &#45;11 -->
<g id="node2" class="node">
<title>&#45;11</title>
<path fill="none" stroke="black" d="M86.82,-0.5C86.82,-0.5 417.82,-0.5 417.82,-0.5 423.82,-0.5 429.82,-6.5 429.82,-12.5 429.82,-12.5 429.82,-160 429.82,-160 429.82,-166 423.82,-172 417.82,-172 417.82,-172 86.82,-172 86.82,-172 80.82,-172 74.82,-166 74.82,-160 74.82,-160 74.82,-12.5 74.82,-12.5 74.82,-6.5 80.82,-0.5 86.82,-0.5"/>
<text xml:space="preserve" text-anchor="middle" x="252.32" y="-154.7" font-family="Times New Roman,serif" font-size="14.00">P09 Census and Checks</text>
<polyline fill="none" stroke="black" points="74.82,-147.5 429.82,-147.5"/>
<text xml:space="preserve" text-anchor="middle" x="252.32" y="-130.2" font-family="Times New Roman,serif" font-size="14.00">Question / Corpus / Criteria / Controls / Holds if / Fails if / v2</text>
<polyline fill="none" stroke="black" points="74.82,-123 429.82,-123"/>
<text xml:space="preserve" text-anchor="middle" x="252.32" y="-105.7" font-family="Times New Roman,serif" font-size="14.00">FITS PARTIAL FAILS NO_DATA</text>
<polyline fill="none" stroke="black" points="74.82,-98.5 429.82,-98.5"/>
<text xml:space="preserve" text-anchor="middle" x="252.32" y="-81.2" font-family="Times New Roman,serif" font-size="14.00">target vs control words, grouped (GW&#45;10)</text>
<polyline fill="none" stroke="black" points="74.82,-74 429.82,-74"/>
<text xml:space="preserve" text-anchor="middle" x="252.32" y="-56.7" font-family="Times New Roman,serif" font-size="14.00">All / FITS / PARTIAL / FAILS / NO_DATA</text>
<polyline fill="none" stroke="black" points="74.82,-49.5 429.82,-49.5"/>
<text xml:space="preserve" text-anchor="middle" x="252.32" y="-32.2" font-family="Times New Roman,serif" font-size="14.00">Bucket / Reference / Text / Why / Near miss</text>
<polyline fill="none" stroke="black" points="74.82,-25 429.82,-25"/>
<text xml:space="preserve" text-anchor="middle" x="252.32" y="-7.7" font-family="Times New Roman,serif" font-size="14.00">running... Cancel</text>
</g>
</g>
</svg>
