<?xml version="1.0" encoding="UTF-8" standalone="no"?>
<!DOCTYPE svg PUBLIC "-//W3C//DTD SVG 1.1//EN"
 "http://www.w3.org/Graphics/SVG/1.1/DTD/svg11.dtd">
<!-- Generated by graphviz version 14.1.1 (20251213.1925)
 -->
<!-- Title: G Pages: 1 -->
<svg width="820pt" height="132pt"
 viewBox="0.00 0.00 820.00 132.00" xmlns="http://www.w3.org/2000/svg" xmlns:xlink="http://www.w3.org/1999/xlink">
<g id="graph0" class="graph" transform="scale(1 1) rotate(0) translate(4 127.5)">
<title>G</title>
<polygon fill="white" stroke="none" points="-4,4 -4,-127.5 815.7,-127.5 815.7,4 -4,4"/>
<!-- SCR -->
<g id="node1" class="node">
<title>SCR</title>
<ellipse fill="none" stroke="black" cx="28.32" cy="-61.75" rx="28.32" ry="18"/>
<text xml:space="preserve" text-anchor="middle" x="28.32" y="-56.7" font-family="Times New Roman,serif" font-size="14.00">SCR</text>
</g>
<!-- &#45;12 -->
<g id="node2" class="node">
<title>&#45;12</title>
<path fill="none" stroke="black" d="M86.95,-0.5C86.95,-0.5 799.7,-0.5 799.7,-0.5 805.7,-0.5 811.7,-6.5 811.7,-12.5 811.7,-12.5 811.7,-111 811.7,-111 811.7,-117 805.7,-123 799.7,-123 799.7,-123 86.95,-123 86.95,-123 80.95,-123 74.95,-117 74.95,-111 74.95,-111 74.95,-12.5 74.95,-12.5 74.95,-6.5 80.95,-0.5 86.95,-0.5"/>
<text xml:space="preserve" text-anchor="middle" x="443.32" y="-105.7" font-family="Times New Roman,serif" font-size="14.00">P10 Author Library</text>
<polyline fill="none" stroke="black" points="74.95,-98.5 811.7,-98.5"/>
<text xml:space="preserve" text-anchor="middle" x="443.32" y="-81.2" font-family="Times New Roman,serif" font-size="14.00">Search the author library Withdrawn by the author. Kept for the record; not authority.</text>
<polyline fill="none" stroke="black" points="74.95,-74 811.7,-74"/>
<text xml:space="preserve" text-anchor="middle" x="443.32" y="-56.7" font-family="Times New Roman,serif" font-size="14.00">FRAMEWORK VERDICT DRAFT UNMARKED WITHDRAWN UNGATED Larry Rix, author library &#45; document text (GW&#45;13)</text>
<polyline fill="none" stroke="black" points="74.95,-49.5 811.7,-49.5"/>
<text xml:space="preserve" text-anchor="middle" x="443.32" y="-32.2" font-family="Times New Roman,serif" font-size="14.00">Include withdrawn</text>
<polyline fill="none" stroke="black" points="74.95,-25 811.7,-25"/>
<text xml:space="preserve" text-anchor="middle" x="443.32" y="-7.7" font-family="Times New Roman,serif" font-size="14.00">Documents citing Heb 8:8 (status chip each)</text>
</g>
</g>
</svg>
