<?xml version="1.0" encoding="UTF-8" standalone="no"?>
<!DOCTYPE svg PUBLIC "-//W3C//DTD SVG 1.1//EN"
 "http://www.w3.org/Graphics/SVG/1.1/DTD/svg11.dtd">
<!-- Generated by graphviz version 14.1.1 (20251213.1925)
 -->
<!-- Title: G Pages: 1 -->
<svg width="676pt" height="205pt"
 viewBox="0.00 0.00 676.00 205.00" xmlns="http://www.w3.org/2000/svg" xmlns:xlink="http://www.w3.org/1999/xlink">
<g id="graph0" class="graph" transform="scale(1 1) rotate(0) translate(4 201)">
<title>G</title>
<polygon fill="white" stroke="none" points="-4,4 -4,-201 672.45,-201 672.45,4 -4,4"/>
<!-- SCR -->
<g id="node1" class="node">
<title>SCR</title>
<ellipse fill="none" stroke="black" cx="28.32" cy="-98.5" rx="28.32" ry="18"/>
<text xml:space="preserve" text-anchor="middle" x="28.32" y="-93.45" font-family="Times New Roman,serif" font-size="14.00">SCR</text>
</g>
<!-- &#45;02 -->
<g id="node2" class="node">
<title>&#45;02</title>
<path fill="none" stroke="black" d="M86.2,-0.5C86.2,-0.5 656.45,-0.5 656.45,-0.5 662.45,-0.5 668.45,-6.5 668.45,-12.5 668.45,-12.5 668.45,-184.5 668.45,-184.5 668.45,-190.5 662.45,-196.5 656.45,-196.5 656.45,-196.5 86.2,-196.5 86.2,-196.5 80.2,-196.5 74.2,-190.5 74.2,-184.5 74.2,-184.5 74.2,-12.5 74.2,-12.5 74.2,-6.5 80.2,-0.5 86.2,-0.5"/>
<text xml:space="preserve" text-anchor="middle" x="371.32" y="-179.2" font-family="Times New Roman,serif" font-size="14.00">Main window &#45; Study layout</text>
<polyline fill="none" stroke="black" points="74.2,-172 668.45,-172"/>
<text xml:space="preserve" text-anchor="middle" x="371.32" y="-154.7" font-family="Times New Roman,serif" font-size="14.00">File Edit View Go Search Study Tools Window Help</text>
<polyline fill="none" stroke="black" points="74.2,-147.5 668.45,-147.5"/>
<text xml:space="preserve" text-anchor="middle" x="371.32" y="-130.2" font-family="Times New Roman,serif" font-size="14.00">Heb 8:8 SBLGNT Simple / Study</text>
<polyline fill="none" stroke="black" points="74.2,-123 668.45,-123"/>
<text xml:space="preserve" text-anchor="middle" x="371.32" y="-105.7" font-family="Times New Roman,serif" font-size="14.00">Parallel Interlinear / Guide Word Count Ledger</text>
<polyline fill="none" stroke="black" points="74.2,-98.5 668.45,-98.5"/>
<text xml:space="preserve" text-anchor="middle" x="371.32" y="-81.2" font-family="Times New Roman,serif" font-size="14.00">P11 Navigator (west) Center: P01 Bible / P02 Parallel / P03 Interlinear P05 Dictionary and Lexicon (east)</text>
<polyline fill="none" stroke="black" points="74.2,-74 668.45,-74"/>
<text xml:space="preserve" text-anchor="middle" x="371.32" y="-56.7" font-family="Times New Roman,serif" font-size="14.00">P06 Notes (west) P04 Commentary and Library (east)</text>
<polyline fill="none" stroke="black" points="74.2,-49.5 668.45,-49.5"/>
<text xml:space="preserve" text-anchor="middle" x="371.32" y="-32.2" font-family="Times New Roman,serif" font-size="14.00">South (GW&#45;05 tabs): P07 Search / P08 Guides / P09 Census / P10 Author Library</text>
<polyline fill="none" stroke="black" points="74.2,-25 668.45,-25"/>
<text xml:space="preserve" text-anchor="middle" x="371.32" y="-7.7" font-family="Times New Roman,serif" font-size="14.00">Heb 8:8 (SBLGNT) / link A / LXX Jer 38:31 = MT Jer 31:31 / core.db</text>
</g>
</g>
</svg>
